<?xml version="1.0" standalone="no"?><!DOCTYPE svg PUBLIC "-//W3C//DTD SVG 1.1//EN" "http://www.w3.org/Graphics/SVG/1.1/DTD/svg11.dtd"><svg t="1743338395644" class="icon" viewBox="0 0 1024 1024" version="1.1" xmlns="http://www.w3.org/2000/svg" p-id="20369" xmlns:xlink="http://www.w3.org/1999/xlink" width="200" height="200"><path d="M642.478192 390.005528 433.878247 598.204337 328.668043 489.715461c-7.329942-7.559163-19.400862-7.744381-26.960025-0.413416-7.559163 7.330966-7.744381 19.400862-0.413416 26.960025l116.282377 119.906927c0.037862 0.038886 0.074701 0.077771 0.112564 0.115634 3.937682 3.991917 9.475815 6.254447 15.595186 6.372128 0.166799 0.004093 0.332575 0.005117 0.49835 0.005117 6.108115 0 11.655458-2.163269 15.665795-6.121418 0.024559-0.024559 0.050142-0.049119 0.074701-0.073678l219.892129-219.469504c7.452739-7.439436 7.463995-19.510356 0.025583-26.964118C662.001851 382.578372 649.929908 382.567115 642.478192 390.005528z" fill="#92bfffb7" p-id="20370"></path><path d="M975.916377 869.465414l-95.640244-95.553263c-0.079818-0.079818-0.167822-0.147356-0.248663-0.225127 17.563004-27.140127 27.773554-59.4633 27.773554-94.127797 0-95.78146-77.92886-173.704181-173.717484-173.704181-95.786577 0-173.71646 77.92272-173.71646 173.704181 0 45.425585 17.531282 86.826508 46.172599 117.814266-42.756803 34.590819-89.417519 60.758806-138.886187 77.890998-56.998155-19.545148-108.659769-49.254797-153.573701-88.338954-36.499285-31.762401-68.710918-69.788459-95.739505-113.023146-41.854247-66.949808-58.317197-126.103046-61.23055-137.444349L157.109736 256.200056c49.582255-0.468674 96.355535-6.157233 139.291416-16.957207 39.225373-9.866718 75.374688-24.00267 107.446128-42.013883 30.729885-17.259082 51.936883-34.873252 64.950268-47.422056 12.464893 13.778818 32.405037 31.6877 60.160171 48.292889 29.754674 17.801435 64.117296 31.758308 102.133122 41.48074 41.459251 10.602476 87.441515 16.180518 136.932696 16.624632l0 200.821795c0 10.738575 8.705266 19.442818 19.442818 19.442818s19.442818-8.704243 19.442818-19.442818L806.909172 236.672304c0-5.217838-2.096754-10.215666-5.820566-13.871939-3.722788-3.656273-8.779967-5.666046-13.974269-5.567809-52.699246 0.951675-101.231589-4.019547-144.253428-14.785751-34.149774-8.54563-64.916499-20.739347-91.445712-36.242436-35.961026-21.014616-56.681954-44.272319-62.61406-53.634548l0.069585 0.112564-1.381463 0.849344c-1.27504-3.312442-3.450589-6.318916-6.505158-8.589632-8.618285-6.40385-20.770046-4.646833-27.174919 3.972475-0.212848 0.280386-21.85782 28.395724-71.188342 55.625902-29.017894 16.016789-61.816904 28.611641-97.484242 37.435611-44.803415 11.082406-94.301759 16.21531-147.118686 15.257495-5.226025-0.080841-10.253528 1.911536-13.975293 5.567809-3.722788 3.65525-5.820566 8.654101-5.820566 13.871939l0 302.150598c0 1.452071 0.162706 2.90005 0.485047 4.316306 0.647753 2.843768 16.427134 70.570265 65.868173 150.10674 29.05371 46.740534 63.799048 87.920422 103.270015 122.397654 49.453319 43.195801 106.433054 75.880201 169.356153 97.149621 2.065032 0.697895 4.16281 1.028423 6.227842 1.028423 1.578961 0 3.136433-0.199545 4.643764-0.573051 0.87288 0.12382 1.755993 0.195451 2.647293 0.195451 2.025123 0 4.084015-0.324388 6.108115-1.00898 56.94085-19.250436 110.389156-49.426713 158.948105-89.723487 27.973098 19.272949 61.842487 30.575366 98.304933 30.575366 47.366797 0 90.358961-19.065218 121.728412-49.91483l93.152587 93.068675c3.723811 3.719718 8.598842 5.578042 13.475919 5.578042 4.882194 0 9.764388-1.863441 13.488199-5.590322C983.371162 888.980887 983.366046 876.90792 975.916377 869.465414zM734.083539 815.155485c-74.761728 0-135.583978-60.827367-135.583978-135.596258 0-74.754564 60.823274-135.571698 135.583978-135.571698 74.762751 0 135.585001 60.818157 135.585001 135.571698C869.668541 754.328118 808.84629 815.155485 734.083539 815.155485z" fill="#92bfffb7" p-id="20371"></path><path d="M697.749006 568.230676c-74.755588 30.994921-82.848916 100.075253-83.156932 103.000885-1.102101 10.471492 6.493901 19.854187 16.965393 20.956288 0.678452 0.071631 1.350764 0.106424 2.018983 0.106424 9.633405 0 17.907858-7.277754 18.938328-17.071817 0.052189-0.490164 5.792936-49.359174 59.838853-71.768557 9.727549-4.03285 14.343683-15.187911 10.30981-24.914436C718.630592 568.81396 707.472462 564.198849 697.749006 568.230676z" fill="#92bfffb7" p-id="20372"></path></svg>