<?xml version="1.0" standalone="no"?><!DOCTYPE svg PUBLIC "-//W3C//DTD SVG 1.1//EN" "http://www.w3.org/Graphics/SVG/1.1/DTD/svg11.dtd"><svg t="1743338482423" class="icon" viewBox="0 0 1024 1024" version="1.1" xmlns="http://www.w3.org/2000/svg" p-id="23912" xmlns:xlink="http://www.w3.org/1999/xlink" width="200" height="200"><path d="M552.9 565.9m-384.3 0a384.3 384.3 0 1 0 768.6 0 384.3 384.3 0 1 0-768.6 0Z" fill="#BAD4FF" p-id="23913"></path><path d="M583.3 609.5c-6.8 0-13.6-2.4-19.3-7.4l-90.5-79.9c-6.9-6.1-10.9-15.1-10.9-24.6V385.8c0-17.7 13.5-32 30.2-32s30.2 14.3 30.2 32v96.9l79.6 70.3c12.8 11.3 14.5 31.5 3.9 45-6 7.5-14.5 11.5-23.2 11.5z" fill="#1375FF" p-id="23914"></path><path d="M501.9 65.6c-235.6 0-427.3 191.7-427.3 427.3s191.7 427.3 427.3 427.3 427.3-191.7 427.3-427.3S737.5 65.6 501.9 65.6z m0 805.2C293.2 870.8 124 701.6 124 492.9S293.2 115 501.9 115s377.9 169.2 377.9 377.9-169.2 377.9-377.9 377.9z" fill="#1375FF" p-id="23915"></path></svg>