<?xml version="1.0" standalone="no"?><!DOCTYPE svg PUBLIC "-//W3C//DTD SVG 1.1//EN" "http://www.w3.org/Graphics/SVG/1.1/DTD/svg11.dtd"><svg height="100" node-id="1" sillyvg="true" template-height="100" template-width="210" version="1.1" viewBox="0 0 210 100" width="210" xmlns="http://www.w3.org/2000/svg" xmlns:xlink="http://www.w3.org/1999/xlink"><defs node-id="16"></defs><g node-id="18"><path d="M 44.00 96.00 L 160.00 96.00 L 161.40 96.60 L 162.00 98.00 L 161.40 99.40 L 160.00 100.00 L 44.00 100.00 L 42.60 99.40 L 42.00 98.00 L 42.60 96.60 L 44.00 96.00 Z" fill="#badcfe" fill-rule="nonzero" group-id="1" id="Rectangle-4" node-id="6" stroke="none" target-height="4" target-width="120" target-x="42" target-y="96"></path><g node-id="19"><g node-id="20"><path d="M 115.10 56.20 L 129.20 70.40 L 129.70 71.10 L 129.70 72.50 L 128.50 73.70 L 127.10 73.70 L 112.20 59.10 L 111.70 57.70 L 112.20 56.20 L 113.70 55.70 L 115.10 56.20 Z" fill="#1989fa" fill-rule="nonzero" group-id="1,2,3" id="Rectangle-4" node-id="8" stroke="none" target-height="17.999996" target-width="18" target-x="111.7" target-y="55.7"></path></g><path d="M 98.00 18.00 L 94.70 18.20 L 91.60 18.90 L 88.70 19.90 L 85.90 21.30 L 81.00 25.00 L 77.30 29.90 L 75.90 32.70 L 74.90 35.60 L 74.20 38.70 L 74.00 42.00 L 74.20 45.30 L 74.90 48.40 L 75.90 51.30 L 77.30 54.10 L 81.00 59.00 L 85.90 62.70 L 88.70 64.10 L 91.60 65.10 L 94.70 65.80 L 98.00 66.00 L 101.30 65.80 L 104.40 65.10 L 107.30 64.10 L 110.10 62.70 L 115.00 59.00 L 118.70 54.10 L 120.10 51.30 L 121.10 48.40 L 121.80 45.30 L 122.00 42.00 L 121.80 38.70 L 121.10 35.60 L 120.10 32.70 L 118.70 29.90 L 115.00 25.00 L 110.10 21.30 L 107.30 19.90 L 104.40 18.90 L 101.30 18.20 L 98.00 18.00 Z M 98.00 22.00 L 101.70 22.30 L 105.00 23.30 L 108.10 24.70 L 110.90 26.70 L 113.30 29.10 L 115.30 31.90 L 116.70 35.00 L 117.70 38.30 L 118.00 42.00 L 117.70 45.70 L 116.70 49.00 L 115.30 52.10 L 113.30 54.90 L 110.90 57.30 L 108.10 59.30 L 105.00 60.70 L 101.70 61.70 L 98.00 62.00 L 94.30 61.70 L 91.00 60.70 L 87.90 59.30 L 85.10 57.30 L 82.70 54.90 L 80.70 52.10 L 79.30 49.00 L 78.30 45.70 L 78.00 42.00 L 78.30 38.30 L 79.30 35.00 L 80.70 31.90 L 82.70 29.10 L 85.10 26.70 L 87.90 24.70 L 91.00 23.30 L 94.30 22.30 L 98.00 22.00 Z" fill="#1989fa" fill-rule="nonzero" group-id="1,2" id="Oval" node-id="9" stroke="none" target-height="48" target-width="48" target-x="74" target-y="18"></path><path d="M 86.00 40.00 L 86.80 40.20 L 87.80 41.20 L 88.60 45.50 L 89.40 47.00 L 91.50 49.60 L 94.50 51.40 L 98.80 52.20 L 99.40 52.60 L 100.00 54.00 L 99.80 54.80 L 98.80 55.80 L 98.00 56.00 L 95.40 55.80 L 93.10 55.10 L 90.90 54.10 L 89.00 52.70 L 87.30 51.00 L 85.90 49.10 L 84.90 46.90 L 84.20 44.60 L 84.20 41.20 L 85.20 40.20 L 86.00 40.00 Z" fill="#1989fa" fill-rule="nonzero" group-id="1,2" id="Oval" node-id="10" stroke="none" target-height="16" target-width="15.800003" target-x="84.2" target-y="40"></path></g><path d="M 154.00 34.10 L 154.80 34.30 L 155.80 35.30 L 156.00 40.10 L 160.80 40.30 L 161.80 41.30 L 162.00 42.10 L 161.80 42.90 L 160.80 43.90 L 156.00 44.10 L 155.80 48.90 L 154.80 49.90 L 153.20 49.90 L 152.20 48.90 L 152.00 44.10 L 147.20 43.90 L 146.20 42.90 L 146.00 42.10 L 146.20 41.30 L 147.20 40.30 L 152.00 40.10 L 152.20 35.30 L 153.20 34.30 L 154.00 34.10 Z" fill="#badcfe" fill-rule="nonzero" group-id="1" id="Rectangle-4" node-id="11" stroke="none" target-height="15.800003" target-width="16" target-x="146" target-y="34.1"></path><path d="M 56.00 18.00 L 56.80 18.20 L 57.80 19.20 L 58.00 22.00 L 60.80 22.20 L 61.80 23.20 L 62.00 24.00 L 61.80 24.80 L 60.80 25.80 L 58.00 26.00 L 57.80 28.80 L 56.80 29.80 L 56.00 30.00 L 54.60 29.40 L 54.00 28.00 L 54.00 26.00 L 51.20 25.80 L 50.20 24.80 L 50.00 24.00 L 50.20 23.20 L 51.20 22.20 L 54.00 22.00 L 54.20 19.20 L 55.20 18.20 L 56.00 18.00 Z" fill="#badcfe" fill-rule="nonzero" group-id="1" id="Rectangle-4" node-id="12" stroke="none" target-height="12" target-width="12" target-x="50" target-y="18"></path><path d="M 42.00 62.00 L 39.90 62.30 L 38.00 63.10 L 36.30 64.30 L 35.10 66.00 L 34.30 67.90 L 34.00 70.00 L 34.30 72.10 L 35.10 74.00 L 36.30 75.70 L 38.00 76.90 L 39.90 77.70 L 42.00 78.00 L 44.10 77.70 L 46.00 76.90 L 47.70 75.70 L 48.90 74.00 L 49.70 72.10 L 50.00 70.00 L 49.70 67.90 L 48.90 66.00 L 47.70 64.30 L 46.00 63.10 L 44.10 62.30 L 42.00 62.00 Z M 42.00 66.00 L 43.60 66.30 L 44.80 67.20 L 45.70 68.40 L 46.00 70.00 L 45.70 71.60 L 44.80 72.80 L 43.60 73.70 L 42.00 74.00 L 40.40 73.70 L 39.20 72.80 L 38.30 71.60 L 38.00 70.00 L 38.30 68.40 L 39.20 67.20 L 40.40 66.30 L 42.00 66.00 Z" fill="#badcfe" fill-rule="nonzero" group-id="1" id="Oval" node-id="13" stroke="none" target-height="16" target-width="16" target-x="34" target-y="62"></path><path d="M 174.00 82.00 L 173.70 83.60 L 172.80 84.80 L 171.60 85.70 L 170.00 86.00 L 168.40 85.70 L 167.20 84.80 L 166.30 83.60 L 166.00 82.00 L 166.30 80.40 L 167.20 79.20 L 168.40 78.30 L 170.00 78.00 L 171.60 78.30 L 172.80 79.20 L 173.70 80.40 L 174.00 82.00 Z" fill="#badcfe" fill-rule="nonzero" group-id="1" id="Oval-2" node-id="14" stroke="none" target-height="8" target-width="8" target-x="166" target-y="78"></path></g></svg>